<?xml version="1.0" encoding="iso-8859-1"?>
<!-- Generator: Adobe Illustrator 19.0.0, SVG Export Plug-In . SVG Version: 6.00 Build 0)  -->
<svg version="1.1" id="Capa_1" xmlns="http://www.w3.org/2000/svg" xmlns:xlink="http://www.w3.org/1999/xlink" x="0px" y="0px"
	 viewBox="0 0 512.031 512.031" style="enable-background:new 0 0 512.031 512.031;" xml:space="preserve">
<g transform="translate(-1)">
	<path style="fill:#35495E;" d="M491.492,328.752v-0.088l-49.611-143.272v-0.088l-21.363-61.705l-0.088-0.088
		c-3.408-3.441-7.165-6.518-11.211-9.181l-12.182-40.695l-1.501-4.943h-0.088l-4.767-15.89l-1.236-4.237h-0.265
		c-2.336-20.949-20.633-36.424-41.68-35.251c-21.047,1.173-37.51,18.585-37.504,39.664v75.123c-0.228,0.183-0.435,0.39-0.618,0.617
		v0.177l-0.53,16.773H205.213l-0.53-16.772v-0.177c-0.183-0.228-0.39-0.435-0.618-0.618V52.979
		c0.006-21.079-16.457-38.491-37.504-39.664s-39.343,14.301-41.68,35.251h-0.265l-1.412,4.767l-4.59,15.36h-0.088l-1.942,6.444
		l-11.741,39.194c-4.046,2.663-7.803,5.739-11.211,9.181l-0.088,0.088l-21.363,61.705v0.088L22.57,328.664v0.088
		c-27.924,36.772-28.817,87.393-2.209,125.128s74.59,53.892,118.603,39.938c44.013-13.954,73.922-54.805,73.928-100.977
		l-0.177-5.473l-2.913-94.543l-0.177-5.914h94.808l-0.177,5.914l-2.913,94.543l-0.177,5.473
		c0.027,46.154,29.934,86.979,73.932,100.921s91.959-2.208,118.562-39.924C520.267,416.122,519.388,365.522,491.492,328.752z"/>
	<path style="fill:#3F5C6C;" d="M212.893,392.841c-0.027,46.154-29.934,86.979-73.932,100.921s-91.959-2.208-118.562-39.924
		c-26.603-37.716-25.725-88.316,2.172-125.085v-0.088c6.765-8.768,14.833-16.449,23.923-22.775
		c-0.001-0.024,0.008-0.046,0.025-0.063c0.017-0.017,0.04-0.026,0.063-0.025c31.577-21.908,72.545-24.989,107.044-8.051
		s57.114,51.236,59.091,89.618L212.893,392.841z"/>
	<circle style="fill:#67B9CC;" cx="106.962" cy="392.841" r="70.621"/>
	<path style="fill:#3F5C6C;" d="M513.031,392.841c0,58.504-47.427,105.931-105.931,105.931s-105.931-47.427-105.931-105.931
		l0.177-5.473c2.319-44.396,32.098-82.627,74.577-95.742c42.479-13.114,88.627,1.676,115.57,37.038v0.088
		C505.494,347.181,513.061,369.696,513.031,392.841z"/>
	<circle style="fill:#67B9CC;" cx="407.1" cy="392.841" r="70.621"/>
	<g>
		<path style="fill:#2C3E50;" d="M204.066,52.979v75.123c-6.199-7.26-13.717-13.281-22.157-17.743
			c-22.006-11.77-48.438-11.77-70.444,0c-2.287,1.186-4.498,2.513-6.621,3.972l11.741-39.194l1.942-6.444h0.088l4.59-15.36
			l1.412-4.767h0.265c2.336-20.949,20.633-36.424,41.68-35.251S204.072,31.899,204.066,52.979z"/>
		<path style="fill:#2C3E50;" d="M409.219,114.33c-2.123-1.459-4.334-2.786-6.621-3.972c-22.006-11.77-48.438-11.77-70.444,0
			c-8.44,4.462-15.958,10.483-22.157,17.743V52.979c-0.006-21.079,16.457-38.491,37.504-39.664
			c21.047-1.173,39.343,14.301,41.68,35.251h0.265l1.236,4.237l4.767,15.89h0.088l1.501,4.943L409.219,114.33z"/>
	</g>
	<polygon style="fill:#547580;" points="336.479,242.772 177.583,242.772 186.41,145.668 327.652,145.668 	"/>
	<g>
		<path style="fill:#3F5C6C;" d="M336.479,242.772v27.189c-9.404,4.402-18.141,10.108-25.953,16.949H203.535
			c-7.812-6.841-16.548-12.547-25.953-16.949v-27.189H336.479z"/>
		<path style="fill:#3F5C6C;" d="M336.479,242.772v27.189c-9.404,4.402-18.141,10.108-25.953,16.949h-106.99
			c-7.812-6.841-16.549-12.547-25.953-16.949v-27.189H336.479z"/>
	</g>
	<path style="fill:#D1D4D1;" d="M230.548,172.151h52.966c4.875,0,8.828,3.952,8.828,8.828v17.655c0,4.875-3.952,8.828-8.828,8.828
		h-52.966c-4.875,0-8.828-3.952-8.828-8.828v-17.655C221.721,176.103,225.673,172.151,230.548,172.151z"/>
	<g>
		<path style="fill:#3F5C6C;" d="M204.066,61.541v21.363c-14.199-11.03-31.721-16.912-49.699-16.684
			c-13.125-0.088-26.081,2.97-37.782,8.916l1.942-6.444h0.088l4.59-15.36c10.076-3.198,20.59-4.806,31.161-4.767
			C171.781,48.48,188.915,52.953,204.066,61.541z"/>
		<path style="fill:#3F5C6C;" d="M397.037,73.635c-11.666-4.959-24.223-7.482-36.899-7.415c-17.827-0.23-35.307,4.94-50.141,14.83
			V60.482c24.985-12.569,53.776-15.309,80.684-7.68l4.767,15.89h0.088L397.037,73.635z"/>
		<path style="fill:#3F5C6C;" d="M100.273,207.724c-2.271-0.575-4.677-0.221-6.686,0.985c-2.008,1.206-3.453,3.163-4.013,5.437
			l-8.828,35.31c-0.765,3.058,0.159,6.293,2.425,8.485c2.266,2.192,5.529,3.009,8.56,2.142c3.031-0.866,5.37-3.284,6.135-6.342
			l8.828-35.31c0.571-2.272,0.214-4.677-0.99-6.686C104.5,209.737,102.545,208.29,100.273,207.724z"/>
		<path style="fill:#3F5C6C;" d="M135.583,198.897c-2.271-0.575-4.677-0.22-6.685,0.986s-3.453,3.162-4.013,5.437l-8.828,35.31
			c-1.183,4.728,1.69,9.52,6.418,10.703c4.728,1.183,9.52-1.69,10.703-6.418l8.828-35.31c0.571-2.272,0.214-4.677-0.99-6.686
			C139.81,200.91,137.856,199.463,135.583,198.897z"/>
		<path style="fill:#3F5C6C;" d="M433.316,249.457l-8.828-35.31c-0.765-3.058-3.104-5.476-6.135-6.342
			c-3.031-0.866-6.294-0.05-8.56,2.142c-2.266,2.192-3.19,5.426-2.425,8.485l8.828,35.31c0.765,3.058,3.104,5.476,6.135,6.342
			c3.031,0.866,6.294,0.05,8.56-2.142C433.157,255.75,434.081,252.515,433.316,249.457z"/>
		<path style="fill:#3F5C6C;" d="M389.178,205.319c-0.765-3.058-3.104-5.476-6.135-6.342c-3.031-0.866-6.294-0.05-8.56,2.142
			c-2.266,2.192-3.19,5.426-2.425,8.485l8.828,35.31c0.765,3.058,3.104,5.476,6.135,6.342c3.031,0.866,6.294,0.05,8.56-2.142
			c2.266-2.192,3.19-5.426,2.425-8.485L389.178,205.319z"/>
	</g>
</g>
<g>
</g>
<g>
</g>
<g>
</g>
<g>
</g>
<g>
</g>
<g>
</g>
<g>
</g>
<g>
</g>
<g>
</g>
<g>
</g>
<g>
</g>
<g>
</g>
<g>
</g>
<g>
</g>
<g>
</g>
</svg>
