<?xml version="1.0" encoding="iso-8859-1"?>
<!-- Generator: Adobe Illustrator 19.0.0, SVG Export Plug-In . SVG Version: 6.00 Build 0)  -->
<svg version="1.1" id="Layer_1" xmlns="http://www.w3.org/2000/svg" xmlns:xlink="http://www.w3.org/1999/xlink" x="0px" y="0px"
	 viewBox="0 0 511.994 511.994" style="enable-background:new 0 0 511.994 511.994;" xml:space="preserve">
<g>
	<g>
		<g>
			<path d="M468.858,299.612c0.277-4.245,0.469-8.512,0.469-11.605c0-64.704-28.864-125.184-79.232-165.931
				c-9.131-7.445-22.592-5.973-29.995,3.157c-7.403,9.173-5.995,22.592,3.179,30.016c40.277,32.597,63.381,80.981,63.381,132.757
				c-47.061,0-85.333,38.272-85.333,85.333c0,47.04,38.272,85.333,85.333,85.333s85.333-38.293,85.333-85.333
				C511.994,341.702,494.5,314.353,468.858,299.612z"/>
			<path d="M64.021,266.148c1.6,0.363,3.179,0.533,4.757,0.533c9.749,0,18.539-6.72,20.779-16.619
				c11.349-49.984,45.419-92.501,90.965-115.115c14.208,27.413,42.517,46.379,75.477,46.379c47.061,0,85.333-38.272,85.333-85.333
				c0-47.04-38.272-85.333-85.333-85.333c-45.952,0-83.264,36.587-85.013,82.112c-61.504,26.901-108.096,82.027-123.051,147.861
				C45.333,252.111,52.544,263.546,64.021,266.148z"/>
			<path d="M312.917,448.96c-18.219,6.443-37.397,9.707-56.917,9.707c-37.461,0-73.131-12.203-102.571-34.453
				c10.688-14.251,17.237-31.744,17.237-50.88c0-47.04-38.272-85.333-85.333-85.333S0,326.293,0,373.333
				c0,47.061,38.272,85.333,85.333,85.333c12.075,0,23.531-2.581,33.941-7.125c38.336,32.128,86.251,49.792,136.725,49.792
				c24.384,0,48.32-4.075,71.125-12.139c11.115-3.925,16.939-16.128,13.013-27.221C336.213,450.859,324.053,445.013,312.917,448.96z
				"/>
		</g>
	</g>
</g>
<g>
</g>
<g>
</g>
<g>
</g>
<g>
</g>
<g>
</g>
<g>
</g>
<g>
</g>
<g>
</g>
<g>
</g>
<g>
</g>
<g>
</g>
<g>
</g>
<g>
</g>
<g>
</g>
<g>
</g>
</svg>
