<svg height="512pt" viewBox="0 -3 512.00002 512" width="512pt" xmlns="http://www.w3.org/2000/svg"><path d="m477.867188 139.929688v140.800781l-20.480469-6.828125c-2.125-3.609375-3.84375-7.445313-5.121094-11.433594-2.472656-5.804688-5.117187-11.605469-7.847656-11.605469h-.683594v-110.933593c.015625-17.929688-9.378906-34.546876-24.746094-43.777344l-6.144531-21.929688c.242188-.773437.359375-1.582031.339844-2.390625l2.390625-1.875 10.582031-8.449219c31.339844 13.480469 51.664062 44.304688 51.710938 78.421876zm0 0" fill="#545c60"/><path d="m452.265625 139.929688v122.539062c-2.472656-5.804688-5.117187-11.605469-7.847656-11.605469h-.683594v-110.933593c.015625-17.929688-9.378906-34.546876-24.746094-43.777344l-6.144531-21.929688c.242188-.773437.359375-1.582031.339844-2.390625l2.390625-1.875c22.980469 15.878907 36.699219 42.035157 36.691406 69.972657zm0 0" fill="#9e9e9e"/><path d="m298.132812 339.394531c9.730469-18.6875 112.320313-68.050781 110.1875-88.53125h36.097657c4.980469.023438 9.710937 2.203125 12.96875 5.972657l20.480469 23.894531 21.503906 25.085937c1.203125 1.4375 2.183594 3.046875 2.902344 4.777344zm0 0" fill="#c81e1e"/><path d="m347.734375 345.796875-113.082031-35.203125c-1.289063-1.851562-2.890625-3.46875-4.730469-4.777344l-42.894531-48.980468c-6.300782-4.058594-13.671875-6.136719-21.164063-5.972657h92.304688l46.898437 12.796875 51.199219-6.929687 31.46875 37.863281zm0 0" fill="#c81e1e"/><path d="m247.464844 316.910156 12.800781 181.417969h-251.730469v-181.417969c-.011718-4.070312 1.441406-8.007812 4.09375-11.09375l41.984375-48.980468c3.257813-3.769532 7.988281-5.949219 12.972657-5.972657h43.347656v51.199219h-17.066406c-4.707032.011719-8.519532 3.824219-8.535157 8.53125v34.136719c0 9.050781 3.59375 17.734375 9.996094 24.136719 6.402344 6.402343 15.085937 9.996093 24.136719 9.996093h17.070312c9.050782 0 17.734375-3.59375 24.136719-9.996093 6.402344-6.402344 9.996094-15.085938 9.996094-24.136719v-34.136719c-.015625-4.707031-3.828125-8.519531-8.535157-8.53125h-17.066406v-51.199219h43.351563c4.980469.023438 9.710937 2.203125 12.96875 5.972657l41.984375 48.980468c1.203125 1.4375 2.183594 3.046875 2.902344 4.777344.789062 2.011719 1.191406 4.15625 1.191406 6.316406zm0 0" fill="#f44335"/><path d="m378.625 54.59375 5.632812 9.472656c-.171874.769532 3.921876 1.535156 3.921876 2.304688l-13.054688 22.359375h-178.859375c-28.265625.019531-51.175781 22.929687-51.199219 51.199219v174.933593h-34.132812v-174.933593c.078125-47.097657 38.238281-85.257813 85.332031-85.335938zm0 0" fill="#9e9e9e"/><path d="m333.140625 251.628906-28.160156-113.832031c-.535157-2.199219-1.929688-4.09375-3.867188-5.261719-1.9375-1.171875-4.261719-1.519531-6.457031-.96875l-66.304688 16.382813c-2.199218.535156-4.097656 1.925781-5.265624 3.863281-1.171876 1.941406-1.515626 4.265625-.964844 6.460938l10.242187 41.386718 4.09375 16.554688 4.097657 16.554687 2.046874 8.363281 2.050782 8.277344.339844 1.453125 3.753906 15.101563 2.046875 8.277344 2.050781 8.277343 4.09375 16.554688 2.050781 8.277343h.082031l.769532 3.242188h87.894531zm-61.4375-70.484375c-4.574219 1.132813-9.195313-1.65625-10.328125-6.230469-1.128906-4.570312 1.660156-9.191406 6.230469-10.324218 4.570312-1.128906 9.195312 1.660156 10.324219 6.230468.5625 2.195313.21875 4.523438-.953126 6.464844-1.171874 1.941406-3.070312 3.332032-5.273437 3.859375zm0 0" fill="#ffdc00"/><path d="m408.40625 130.796875-7.851562 50.605469-16.75 10.179687-17.042969-15.472656 7.851562-50.601563 17.03125-5.863281zm0 0" fill="#607d8b"/><path d="m412.84375 194.117188c-8.535156 17.832031-6.65625 37.203124-4.523438 56.746093 2.132813 20.480469 4.523438 41.042969-5.207031 59.730469h-55.378906l-14.59375-58.964844c9.046875-21.84375 21.25-43.261718 18.007813-67.070312-.34375-2.402344.445312-4.828125 2.132812-6.570313 1.980469-2.132812 4.882812-3.152343 7.765625-2.730469l5.714844.851563 33.792969 5.292969 5.632812.851562c2.640625.375 4.953125 1.957032 6.261719 4.285156 1.304687 2.324219 1.449219 5.128907.394531 7.578126zm0 0" fill="#6d4122"/><path d="m387.242188 194.117188c-8.53125 17.832031-6.65625 37.203124-4.523438 56.746093 2.132812 20.480469 4.523438 41.042969-5.203125 59.730469h-29.78125l-14.59375-58.964844c9.046875-21.84375 21.25-43.261718 18.007813-67.070312-.34375-2.402344.445312-4.828125 2.132812-6.570313l21.671875 3.414063 5.632813.851562c2.640624.375 4.957031 1.957032 6.261718 4.285156 1.304688 2.324219 1.453125 5.128907.394532 7.578126zm0 0" fill="#91562d"/><path d="m170.667969 310.59375v34.136719c0 9.050781-3.59375 17.734375-9.996094 24.136719-6.402344 6.402343-15.085937 9.996093-24.136719 9.996093h-17.070312c-9.050782 0-17.734375-3.59375-24.136719-9.996093-6.402344-6.402344-9.996094-15.085938-9.996094-24.136719v-34.136719c.015625-4.707031 3.828125-8.519531 8.535157-8.53125h68.265624c4.707032.011719 8.519532 3.824219 8.535157 8.53125zm0 0" fill="#7f8e94"/><path d="m503.464844 316.910156v181.417969h-256v-181.417969c0-2.160156-.402344-4.304687-1.191406-6.316406h256c.789062 2.011719 1.191406 4.15625 1.191406 6.316406zm0 0" fill="#c81e1e"/><path d="m477.867188 316.910156v181.417969h-230.402344v-181.417969c0-2.160156-.402344-4.304687-1.191406-6.316406h230.398437c.789063 2.011719 1.195313 4.15625 1.195313 6.316406zm0 0" fill="#f44335"/><path d="m426.667969 20.121094-.511719 41.386718-.171875 10.324219c.019531.808594-.097656 1.617188-.339844 2.390625l-6.65625 21.929688-10.582031 34.644531-33.792969-5.289063.511719-36.777343.257812-22.359375c.027344-.777344.144532-1.550782.339844-2.304688l2.902344-9.472656 12.285156-40.019531c1.21875-4.082031 5.265625-6.636719 9.472656-5.972657l19.03125 2.984376c4.21875.613281 7.328126 4.269531 7.253907 8.535156zm0 0" fill="#9e9e9e"/><path d="m247.464844 506.863281h-238.929688c-4.714844 0-8.535156-3.820312-8.535156-8.535156v-181.417969c-.0078125-6.113281 2.179688-12.027344 6.164062-16.667968l41.96875-48.960938c4.871094-5.671875 11.972657-8.941406 19.453126-8.953125h43.347656c4.710937 0 8.53125 3.820313 8.53125 8.535156 0 4.710938-3.820313 8.53125-8.53125 8.53125h-43.347656c-2.503907.027344-4.875 1.125-6.511719 3.015625l-41.964844 48.960938c-1.324219 1.542968-2.046875 3.507812-2.042969 5.539062v172.886719h221.867188v-172.886719c0-1.09375-.203125-2.179687-.605469-3.195312-.386719-.898438-.90625-1.730469-1.539063-2.472656l-41.882812-48.851563c-1.632812-1.882813-3.996094-2.972656-6.488281-2.996094h-43.351563c-4.710937 0-8.53125-3.820312-8.53125-8.53125 0-4.714843 3.820313-8.535156 8.53125-8.535156h43.351563c7.464843.011719 14.5625 3.269531 19.429687 8.933594l42 49c1.8125 2.148437 3.277344 4.5625 4.347656 7.164062 1.191407 3.019531 1.804688 6.238281 1.804688 9.484375v181.417969c0 4.714844-3.820312 8.535156-8.535156 8.535156zm0 0"/><path d="m503.464844 506.863281h-256c-4.710938 0-8.53125-3.820312-8.53125-8.535156 0-4.710937 3.820312-8.53125 8.53125-8.53125h247.46875v-172.886719c0-1.09375-.203125-2.179687-.605469-3.195312-.386719-.898438-.90625-1.730469-1.539063-2.472656l-41.882812-48.851563c-1.632812-1.882813-3.996094-2.972656-6.488281-2.996094h-36.097657c-4.714843 0-8.535156-3.820312-8.535156-8.53125 0-4.714843 3.820313-8.535156 8.535156-8.535156h35.414063c7.695313-.140625 15.058594 3.132813 20.117187 8.933594l42 49c1.808594 2.148437 3.277344 4.5625 4.34375 7.164062 1.191407 3.019531 1.804688 6.238281 1.804688 9.484375v181.417969c0 4.714844-3.820312 8.535156-8.535156 8.535156zm0 0"/><path d="m244.992188 259.394531h-99.925782c-4.710937 0-8.53125-3.820312-8.53125-8.53125 0-4.714843 3.820313-8.535156 8.53125-8.535156h99.925782c4.710937 0 8.53125 3.820313 8.53125 8.535156 0 4.710938-3.820313 8.53125-8.53125 8.53125zm0 0"/><path d="m110.933594 259.394531h-43.347656c-4.714844 0-8.535157-3.820312-8.535157-8.53125 0-4.714843 3.820313-8.535156 8.535157-8.535156h43.347656c4.710937 0 8.53125 3.820313 8.53125 8.535156 0 4.710938-3.820313 8.53125-8.53125 8.53125zm0 0"/><path d="m502.273438 319.128906h-256c-4.714844 0-8.535157-3.820312-8.535157-8.535156 0-4.710938 3.820313-8.53125 8.535157-8.53125h256c4.710937 0 8.53125 3.820312 8.53125 8.53125 0 4.714844-3.820313 8.535156-8.53125 8.535156zm0 0"/><path d="m477.867188 289.261719c-4.714844 0-8.535157-3.820313-8.535157-8.53125v-140.800781c.003907-30.722657-18.308593-58.488282-46.550781-70.582032-2.800781-1.203125-4.746094-3.808594-5.105469-6.839844-.355469-3.027343.929688-6.015624 3.371094-7.839843 2.445313-1.824219 5.675781-2.207031 8.476563-1 34.511718 14.785156 56.882812 48.71875 56.875 86.261719v140.800781c0 2.261719-.898438 4.433593-2.496094 6.03125-1.601563 1.601562-3.773438 2.5-6.035156 2.5zm0 0"/><path d="m443.734375 259.394531c-4.714844 0-8.535156-3.820312-8.535156-8.53125v-110.933593c.058593-14.945313-7.78125-28.8125-20.621094-36.46875-4-2.449219-5.269531-7.667969-2.847656-11.683594s7.632812-5.324219 11.664062-2.925782c17.976563 10.722657 28.953125 30.144532 28.871094 51.078126v110.933593c0 4.710938-3.820313 8.53125-8.53125 8.53125zm0 0"/><path d="m110.933594 310.59375c-4.714844 0-8.535156-3.820312-8.535156-8.53125v-162.132812c.058593-51.816407 42.050781-93.808594 93.867187-93.867188h182.359375c4.710938 0 8.53125 3.820312 8.53125 8.53125 0 4.714844-3.820312 8.535156-8.53125 8.535156h-182.359375c-42.394531.046875-76.75 34.402344-76.800781 76.800782v162.132812c0 4.710938-3.820313 8.53125-8.53125 8.53125zm0 0"/><path d="m145.066406 310.59375c-4.710937 0-8.53125-3.820312-8.53125-8.53125v-162.132812c.035156-32.976563 26.757813-59.699219 59.730469-59.734376h178.859375c4.714844 0 8.535156 3.820313 8.535156 8.535157 0 4.710937-3.820312 8.53125-8.535156 8.53125h-178.859375c-23.550781.027343-42.636719 19.113281-42.664063 42.667969v162.132812c0 4.710938-3.820312 8.53125-8.535156 8.53125zm0 0"/><path d="m347.726562 319.128906c-3.921874-.003906-7.339843-2.679687-8.277343-6.484375l-42.746094-172.800781-66.304687 16.390625 36.601562 147.964844c.15625.382812.28125.777343.375 1.179687l.769531 3.242188c.765625 2.988281-.140625 6.15625-2.371093 8.289062-2.226563 2.132813-5.433594 2.894532-8.382813 1.996094-2.953125-.898438-5.1875-3.320312-5.847656-6.335938l-.507813-2.128906c-.132812-.335937-.242187-.683594-.328125-1.035156l-36.867187-149.078125c-2.25-9.164063 3.355468-18.417969 12.519531-20.671875l66.25-16.375c4.285156-1.113281 8.84375-.46875 12.652344 1.792969 3.96875 2.316406 6.84375 6.128906 7.980469 10.582031l42.773437 172.890625c.632813 2.550781.054687 5.246094-1.566406 7.3125-1.617188 2.066406-4.097657 3.273437-6.722657 3.269531zm0 0"/><path d="m278.21875 172.859375c0 4.710937-3.820312 8.53125-8.53125 8.53125-4.714844 0-8.535156-3.820313-8.535156-8.53125 0-4.714844 3.820312-8.535156 8.535156-8.535156 4.710938 0 8.53125 3.820312 8.53125 8.535156zm0 0"/><path d="m234.410156 216.496094c-4.3125-.003906-7.941406-3.226563-8.460937-7.503906-.519531-4.28125 2.234375-8.277344 6.421875-9.3125l24.847656-6.15625c2.976562-.773438 6.132812.113281 8.273438 2.320312 2.140624 2.207031 2.925781 5.390625 2.0625 8.339844-.863282 2.949218-3.246094 5.207031-6.238282 5.90625l-24.851562 6.15625c-.671875.164062-1.363282.25-2.054688.25zm0 0"/><path d="m242.617188 249.628906c-4.3125-.003906-7.941407-3.226562-8.460938-7.503906-.519531-4.28125 2.234375-8.277344 6.417969-9.3125l24.851562-6.15625c4.550781-1.066406 9.109375 1.726562 10.234375 6.261719 1.121094 4.535156-1.617187 9.132812-6.140625 10.308593l-24.847656 6.152344c-.671875.167969-1.363281.25-2.054687.25zm0 0"/><path d="m250.816406 282.761719c-4.3125-.003907-7.941406-3.222657-8.460937-7.503907s2.234375-8.277343 6.417969-9.3125l24.851562-6.152343c2.964844-.75 6.105469.144531 8.226562 2.34375 2.125 2.203125 2.910157 5.371093 2.058594 8.308593-.855468 2.933594-3.214844 5.191407-6.183594 5.914063l-24.851562 6.152344c-.671875.167969-1.363281.25-2.058594.25zm0 0"/><path d="m259.019531 315.894531c-4.308593-.003906-7.941406-3.222656-8.460937-7.503906-.519532-4.28125 2.234375-8.277344 6.421875-9.3125l24.847656-6.152344c2.976563-.773437 6.136719.113281 8.273437 2.316407 2.140626 2.207031 2.925782 5.394531 2.0625 8.34375-.863281 2.945312-3.246093 5.203124-6.238281 5.90625l-24.851562 6.152343c-.671875.167969-1.359375.25-2.054688.25zm0 0"/><path d="m408.375 139.316406c-.441406 0-.882812-.035156-1.320312-.101562l-33.722657-5.253906c-4.195312-.652344-7.273437-4.292969-7.21875-8.539063l.75-59.117187c.015625-1.621094.269531-3.230469.746094-4.78125l15.101563-49.453126c2.519531-8.089843 10.566406-13.136718 18.945312-11.878906l19.101562 2.972656c8.375 1.339844 14.515626 8.601563 14.441407 17.085938l-.652344 51.710938c-.023437 1.617187-.273437 3.222656-.746094 4.769531l-17.273437 56.542969c-1.09375 3.585937-4.402344 6.039062-8.152344 6.042968zm-25.109375-21.078125 19.101563 2.976563 15.109374-49.46875v-.023438l.65625-51.6875-19.101562-2.972656-15.101562 49.457031zm0 0"/><path d="m400.566406 189.933594c-.441406 0-.882812-.035156-1.320312-.101563-2.238282-.34375-4.246094-1.566406-5.582032-3.394531-1.335937-1.828125-1.890624-4.109375-1.542968-6.347656l6.546875-42.175782-16.933594-2.652343-6.539063 42.160156c-.722656 4.65625-5.082031 7.847656-9.742187 7.125-4.65625-.722656-7.847656-5.085937-7.125-9.742187l7.851563-50.601563c.347656-2.238281 1.574218-4.246094 3.402343-5.585937 1.824219-1.339844 4.113281-1.894532 6.351563-1.535157l33.792968 5.289063c4.652344.730468 7.832032 5.085937 7.113282 9.738281l-7.851563 50.605469c-.644531 4.152344-4.21875 7.214844-8.421875 7.21875zm0 0"/><path d="m403.109375 319.128906c-2.980469-.003906-5.742187-1.558594-7.289063-4.109375-1.546874-2.546875-1.648437-5.71875-.273437-8.363281 8.34375-16.035156 6.4375-34.316406 4.414063-53.671875l-.128907-1.242187c-2.089843-19.140626-4.460937-40.886719 5.3125-61.3125l-5.871093-.597657-39.488282-6.136719c2.835938 21.886719-5.765625 41.4375-14.082031 60.339844-1.585937 3.617188-3.179687 7.230469-4.679687 10.855469-1.167969 2.816406-3.746094 4.796875-6.769532 5.195313-3.023437.398437-6.027344-.847657-7.882812-3.269532-1.855469-2.417968-2.28125-5.640625-1.113282-8.457031 1.546876-3.738281 3.1875-7.464844 4.824219-11.195313 7.703125-17.507812 14.980469-34.046874 12.609375-51.460937-.722656-5.203125 1.082032-10.4375 4.851563-14.09375 3.914062-3.828125 9.390625-5.597656 14.800781-4.789063l45.121094 6.992188c5.417968.847656 10.121094 4.195312 12.695312 9.039062 2.503906 4.625 2.648438 10.167969.390625 14.921876-7.6875 16.066406-5.683593 34.414062-3.746093 52.160156l.132812 1.277344c2.191406 21.011718 4.460938 42.734374-6.25 63.316406-1.46875 2.828125-4.390625 4.605468-7.578125 4.601562zm0 0"/><path d="m136.535156 387.394531h-17.070312c-23.550782-.027343-42.636719-19.113281-42.664063-42.664062v-34.136719c.007813-9.421875 7.644531-17.054688 17.066407-17.066406h68.265624c9.421876.011718 17.058594 7.644531 17.066407 17.066406v34.136719c-.027344 23.550781-19.113281 42.636719-42.664063 42.664062zm-42.667968-76.800781v34.136719c.015624 14.128906 11.46875 25.582031 25.597656 25.597656h17.070312c14.128906-.015625 25.582032-11.46875 25.597656-25.597656v-34.136719zm0 0"/><path d="m298.667969 353.261719h-17.066407c-4.714843 0-8.535156-3.820313-8.535156-8.53125 0-4.714844 3.820313-8.535157 8.535156-8.535157h17.066407c4.710937 0 8.53125 3.820313 8.53125 8.535157 0 4.710937-3.820313 8.53125-8.53125 8.53125zm0 0"/><path d="m469.332031 353.261719h-136.53125c-4.714843 0-8.535156-3.820313-8.535156-8.53125 0-4.714844 3.820313-8.535157 8.535156-8.535157h136.53125c4.714844 0 8.535157 3.820313 8.535157 8.535157 0 4.710937-3.820313 8.53125-8.535157 8.53125zm0 0"/></svg>