<svg height="512" viewBox="0 0 57 50" width="512" xmlns="http://www.w3.org/2000/svg"><g id="Page-1" fill="none" fill-rule="evenodd"><g id="087---Money-Percentage" fill="rgb(0,0,0)" fill-rule="nonzero" transform="translate(0 -1)"><circle id="Oval" cx="17" cy="17" r="3"/><path id="Shape" d="m26 29c.0004396 1.226286.7520444 2.3271052 1.894 2.774.6508834-1.8798401 1.6469413-3.6216696 2.937-5.136-.9008379-.7079369-2.1273094-.8380062-3.156595-.3347621-1.0292856.5032442-1.6798632 1.5510511-1.674405 2.6967621z"/><path id="Shape" d="m45.876 21.273c1.2123402.2186551 2.395011.5780877 3.524 1.071 3.7721809-2.2510482 5.9304437-6.4561424 5.5601848-10.8332962-.370259-4.37715376-3.2042103-8.15996158-7.3009148-9.74538884-4.0967044-1.58542725-8.7388609-.69587793-11.95927 2.29168504 5.7925908 3.93123402 9.5249436 10.2457177 10.176 17.216z"/><path id="Shape" d="m27.345 33.7c-1.8980812-.6589086-3.2161508-2.3915276-3.3446695-4.3966101s.9575642-3.8917992 2.7559914-4.7876409 3.9586505-.6261916 5.4816781.684251c2.9349124-2.698122 6.7753268-4.1968899 10.762-4.2.286 0 .566.028.849.043-1.0095806-9.0234393-7.5642301-16.44731067-16.3930833-18.56699473s-18.03950561 1.51915906-23.03570808 9.10069383c-4.99620247 7.5815348-4.70705308 17.480711.72315843 24.7576961 5.43021155 7.2769851 14.83755635 10.372007 23.52763295 7.7406048-1.6033667-3.2086226-2.0708391-6.8662597-1.326-10.375zm-10.345-21.7c2.7614237 0 5 2.2385763 5 5s-2.2385763 5-5 5-5-2.2385763-5-5c.0033061-2.7600532 2.2399468-4.9966939 5-5zm-3.293 21.707c-.3923789.3789722-1.0160848.3735524-1.4018186-.0121814s-.3911536-1.0094397-.0121814-1.4018186l20-20c.3923789-.3789722 1.0160848-.3735524 1.4018186.0121814s.3911536 1.0094397.0121814 1.4018186z"/><path id="Shape" d="m43 23c-7.7319865 0-14 6.2680135-14 14s6.2680135 14 14 14 14-6.2680135 14-14c-.0082673-7.7285595-6.2714405-13.9917327-14-14zm6 18.5c-.1052769 2.7905788-2.2267656 5.0889996-5 5.417v.083c0 .5522847-.4477153 1-1 1s-1-.4477153-1-1v-.083c-2.7732344-.3280004-4.8947231-2.6264212-5-5.417 0-.5522847.4477153-1 1-1s1 .4477153 1 1c.0893501 1.6876511 1.3345478 3.0889136 3 3.376v-6.959c-2.7732344-.3280004-4.8947231-2.6264212-5-5.417.1052769-2.7905788 2.2267656-5.0889996 5-5.417v-.083c0-.5522847.4477153-1 1-1s1 .4477153 1 1v.083c2.7732344.3280004 4.8947231 2.6264212 5 5.417 0 .5522847-.4477153 1-1 1s-1-.4477153-1-1c-.0893501-1.6876511-1.3345478-3.0889136-3-3.376v6.959c2.7732344.3280004 4.8947231 2.6264212 5 5.417z"/><path id="Shape" d="m39 32.5c.0893501 1.6876511 1.3345478 3.0889136 3 3.376v-6.752c-1.6654522.2870864-2.9106499 1.6883489-3 3.376z"/><path id="Shape" d="m44 44.876c1.7096317-.2042173 2.9967333-1.6542145 2.9967333-3.376s-1.2871016-3.1717827-2.9967333-3.376z"/></g></g></svg>