<?xml version="1.0" encoding="iso-8859-1"?>
<!-- Generator: Adobe Illustrator 19.0.0, SVG Export Plug-In . SVG Version: 6.00 Build 0)  -->
<svg version="1.1" id="Capa_1" xmlns="http://www.w3.org/2000/svg" xmlns:xlink="http://www.w3.org/1999/xlink" x="0px" y="0px"
	 viewBox="0 0 455.111 455.111" style="enable-background:new 0 0 455.111 455.111;" xml:space="preserve">
<path style="fill:#E24C4B;" d="M227.556,455.111C102.4,455.111,0,352.711,0,227.556S102.4,0,227.556,0
	s227.556,102.4,227.556,227.556S352.711,455.111,227.556,455.111z"/>
<path style="fill:#FFFFFF;" d="M227.556,412.444c102.4,0,184.889-82.489,184.889-184.889S329.956,42.667,227.556,42.667
	S42.667,125.156,42.667,227.556S125.156,412.444,227.556,412.444z"/>
<path style="fill:#E9EFF4;" d="M366.933,106.667c-32.711-28.444-75.378-45.511-120.889-45.511
	c-102.4,0-184.889,82.489-184.889,184.889c0,46.933,17.067,88.178,45.511,120.889c-39.822-34.133-64-83.911-64-139.378
	c0-102.4,82.489-184.889,184.889-184.889C283.022,42.667,332.8,68.267,366.933,106.667z"/>
<g>
	<path style="fill:#3F4448;" d="M86.756,227.556c0,7.111-5.689,11.378-11.378,11.378c-5.689,0-11.378-5.689-11.378-11.378
		s5.689-11.378,11.378-11.378C81.067,216.178,86.756,220.444,86.756,227.556z"/>
	<path style="fill:#3F4448;" d="M238.933,75.378c0,7.111-5.689,11.378-11.378,11.378c-7.111,0-11.378-5.689-11.378-11.378
		c0-5.689,5.689-11.378,11.378-11.378C234.667,64,238.933,68.267,238.933,75.378z"/>
	<path style="fill:#3F4448;" d="M391.111,227.556c0,7.111-5.689,11.378-11.378,11.378c-7.111,0-11.378-5.689-11.378-11.378
		s5.689-11.378,11.378-11.378C386.844,216.178,391.111,220.444,391.111,227.556z"/>
	<path style="fill:#3F4448;" d="M238.933,379.733c0,5.689-5.689,11.378-11.378,11.378c-7.111,0-11.378-5.689-11.378-11.378
		c0-7.111,5.689-11.378,11.378-11.378C234.667,368.356,238.933,374.044,238.933,379.733z"/>
</g>
<path style="fill:#FED93D;" d="M237.511,237.511c-7.111,0-12.8-4.267-12.8-9.956c0-5.689,5.689-9.956,12.8-9.956l112.356,4.267
	c2.844,0,5.689,2.844,5.689,5.689c0,2.844-2.844,5.689-5.689,5.689L237.511,237.511z"/>
<path style="fill:#6DAFE0;" d="M237.511,228.978l-4.267-106.667c0-2.844-2.844-5.689-5.689-5.689c-2.844,0-5.689,2.844-5.689,5.689
	L217.6,228.978H237.511z"/>
<circle style="fill:#5B6064;" cx="227.556" cy="227.556" r="31.289"/>
<circle style="fill:#3F4448;" cx="227.556" cy="227.556" r="17.067"/>
<g>
</g>
<g>
</g>
<g>
</g>
<g>
</g>
<g>
</g>
<g>
</g>
<g>
</g>
<g>
</g>
<g>
</g>
<g>
</g>
<g>
</g>
<g>
</g>
<g>
</g>
<g>
</g>
<g>
</g>
</svg>
